# xmcd
#
# Track frame offsets:
#	150
#	17568
#	32257
#	47571
#	63752
#	82790
#	101075
#	117806
#	135150
#	153273
#	166719
#	179433
#	203719
#	226427
#	247024
#	264203
#	282805
#	298483
#	311007
#
# Disc length: 4458 seconds
# Revision: 0
# Processed by: cddbd v1.5.2PL0 Copyright (c) Steve Scherf et al.
# Submitted via: dBpowerAMP V12.0
#
DISCID=ef116813
DTITLE=Various Artist - Best Of Blues and Roots 2012
DYEAR=2010
DGENRE=Blues
TTITLE0=Blue King Brown - Never Fade Away
TTITLE1=Chase The Sun - The Pants
TTITLE2=Jordie Lane - The Publican's Daughter
TTITLE3=Seasick Steve - You Can't Teach An Old Dog New Tricks
TTITLE4=The Jezabels - Endless Summer
TTITLE5=The Waifs - Buffalo
TTITLE6=Eric Bibb - Spirit I Am
TTITLE7=Gurrumul - Gopuru
TTITLE8=The Fumes - Automobile
TTITLE9=Andrew Phelan - Troubled Times
TTITLE10=Justin Townes Earle - Harlem River Blues
TTITLE11=Hat Fitz and Cara Robinson - Black Cat Bone
TTITLE12=Buddy Guy Featuring B.B. King - Stay Around A Little Longer
TTITLE13=The Audreys - Sometimes The Stars
TTITLE14=Michael Franti and Spearhead - Hey, Hey,Hey
TTITLE15=Tim Finn - People Like Us
TTITLE16=Christa Hughes And The Honky Tonk Shonks - Ace Of Spades
TTITLE17=Sarah Humphreys - You Make My  Dreams
TTITLE18=Jason Lowe - Long Back in Mile
EXTD=
EXTT0=
EXTT1=
EXTT2=
EXTT3=
EXTT4=
EXTT5=
EXTT6=
EXTT7=
EXTT8=
EXTT9=
EXTT10=
EXTT11=
EXTT12=
EXTT13=
EXTT14=
EXTT15=
EXTT16=
EXTT17=
EXTT18=
PLAYORDER=
